<?xml version="1.0" standalone="no"?>
<!DOCTYPE svg PUBLIC "-//W3C//DTD SVG 20010904//EN"
 "http://www.w3.org/TR/2001/REC-SVG-20010904/DTD/svg10.dtd">
<svg version="1.0" xmlns="http://www.w3.org/2000/svg"
 width="604.000000pt" height="604.000000pt" viewBox="0 0 604.000000 604.000000"
 preserveAspectRatio="xMidYMid meet">
<metadata>
Created by potrace 1.14, written by Peter Selinger 2001-2017
</metadata>
<g transform="translate(0.000000,604.000000) scale(0.100000,-0.100000)"
fill="#000000" stroke="none">
<path d="M3364 4110 c-5 -8 -9 -55 -10 -105 -1 -49 -3 -94 -4 -100 -2 -5 0
-17 4 -25 5 -13 61 -15 421 -15 228 1 417 4 421 8 13 13 11 217 -2 228 -7 6
-164 8 -413 7 -247 -2 -402 1 -404 7 -2 5 -7 2 -13 -5z"/>
<path d="M633 4099 c-6 -6 -9 -17 -7 -24 3 -7 1 -16 -5 -20 -6 -3 -11 -12 -11
-18 0 -7 4 -6 10 3 6 9 8 -5 8 -43 -1 -32 -5 -60 -10 -63 -4 -3 -8 -11 -8 -17
0 -7 4 -6 10 3 6 9 8 -5 8 -43 -1 -32 -5 -60 -10 -63 -4 -3 -8 -11 -8 -17 0
-7 4 -6 10 3 6 9 8 -5 8 -43 -1 -32 -5 -60 -10 -63 -4 -3 -8 -11 -8 -17 0 -7
4 -6 10 3 6 9 8 -5 8 -43 -1 -32 -5 -60 -10 -63 -4 -3 -8 -11 -8 -17 0 -7 4
-6 10 3 6 9 8 -5 8 -43 -1 -32 -5 -60 -10 -63 -4 -3 -8 -11 -8 -17 0 -7 4 -6
10 3 6 9 8 -5 8 -43 -1 -32 -5 -60 -10 -63 -4 -3 -8 -11 -8 -17 0 -7 4 -6 10
3 6 9 8 -5 8 -43 -1 -32 -5 -60 -10 -63 -4 -3 -8 -11 -8 -17 0 -7 4 -6 10 3 6
9 8 -5 8 -43 -1 -32 -5 -60 -10 -63 -4 -3 -8 -11 -8 -17 0 -7 4 -6 10 3 6 9 8
-5 8 -43 -1 -32 -5 -60 -10 -63 -4 -3 -8 -11 -8 -17 0 -7 4 -6 10 3 7 10 9 -2
8 -40 -1 -30 -6 -61 -12 -69 -8 -11 -8 -13 0 -8 8 5 11 -14 10 -64 -1 -38 1
-73 4 -78 6 -9 240 -9 255 1 7 4 11 137 10 392 0 212 3 386 6 386 6 0 25 -36
127 -235 31 -60 60 -111 64 -113 4 -2 8 -10 8 -19 0 -8 9 -27 19 -41 10 -15
19 -29 19 -32 0 -8 36 -85 43 -90 3 -3 27 -49 54 -102 l48 -98 122 0 121 0 39
78 c22 42 38 80 37 85 -1 4 3 7 8 7 6 0 10 9 10 19 0 10 7 21 15 25 8 3 12 12
9 19 -3 8 1 21 8 28 12 13 171 329 171 339 0 3 8 16 18 29 11 13 19 31 19 40
0 9 7 24 14 34 13 16 14 16 18 -8 3 -14 1 -25 -6 -25 -7 0 -7 -3 -1 -8 12 -8
12 -52 1 -70 -4 -6 -4 -12 1 -12 10 0 8 -93 -1 -109 -4 -6 -4 -11 1 -11 10 0
8 -93 -1 -109 -4 -6 -2 -11 4 -11 6 0 8 -5 5 -10 -3 -6 -4 -18 -1 -28 6 -16
19 -18 130 -17 69 0 128 4 132 7 9 10 11 228 2 228 -4 0 -5 7 -2 15 9 22 10
465 2 465 -4 0 -5 6 -2 13 9 24 10 98 2 103 -5 3 -5 10 -2 16 8 13 9 131 1
144 -3 6 -2 16 3 24 4 7 4 23 -3 37 -10 22 -14 23 -137 23 l-126 0 -48 -102
c-27 -57 -53 -115 -58 -130 -6 -16 -14 -28 -18 -28 -4 0 -11 -7 -14 -16 -3 -9
-2 -12 4 -9 6 4 -3 -16 -20 -44 -16 -28 -28 -51 -25 -51 2 0 -9 -27 -26 -59
-16 -33 -29 -65 -29 -70 0 -6 -4 -11 -10 -11 -5 0 -10 -5 -10 -10 0 -6 -7 -27
-17 -48 -9 -20 -15 -40 -15 -44 1 -5 -3 -8 -8 -8 -5 0 -9 -3 -8 -7 0 -5 -6
-25 -15 -45 -10 -21 -17 -42 -17 -48 0 -5 -4 -10 -9 -10 -4 0 -16 -21 -26 -47
-10 -27 -24 -57 -32 -69 -7 -11 -10 -24 -6 -27 3 -4 1 -7 -6 -7 -7 0 -9 -4 -6
-10 3 -5 2 -10 -2 -10 -9 0 -39 -71 -34 -79 2 -2 -1 -7 -7 -10 -5 -3 -14 -15
-20 -26 -10 -19 -12 -18 -22 13 -7 17 -16 32 -21 32 -5 0 -8 3 -7 8 1 4 -6 21
-15 39 -9 18 -17 39 -17 47 0 8 -3 16 -7 18 -7 2 -64 112 -68 128 -3 16 -101
206 -108 208 -4 2 -5 8 -1 13 3 5 0 9 -6 9 -7 0 -10 7 -6 15 3 8 1 15 -3 15
-5 0 -17 21 -27 48 -10 26 -21 49 -24 52 -8 7 -50 98 -50 109 0 5 -3 11 -7 13
-10 4 -67 120 -65 131 1 4 -3 7 -10 7 -6 0 -9 3 -5 6 3 3 -7 29 -23 57 l-29
52 -123 3 c-83 2 -127 -1 -135 -9z"/>
<path d="M3032 3634 c-1 -465 -7 -574 -34 -574 -5 0 -6 -4 -3 -10 3 -5 2 -10
-4 -10 -5 0 -24 -13 -42 -29 -18 -17 -35 -29 -38 -29 -3 1 -18 -4 -33 -10 -61
-25 -174 -19 -244 13 -41 19 -104 84 -104 107 0 10 -4 18 -8 18 -13 0 -12 -5
-16 375 -2 193 -4 355 -5 360 -1 11 -248 12 -259 1 -10 -10 -8 -206 2 -206 5
0 4 -6 -1 -12 -5 -7 -8 -33 -6 -58 4 -63 4 -60 0 -117 -2 -29 1 -53 6 -53 6 0
6 -5 0 -12 -5 -7 -8 -33 -6 -58 3 -54 3 -61 0 -125 -1 -27 2 -56 7 -62 5 -8 4
-13 -3 -13 -7 0 -9 -5 -6 -10 4 -6 8 -23 11 -38 7 -49 27 -106 47 -134 10 -16
15 -28 11 -28 -4 0 3 -8 14 -19 12 -10 21 -20 19 -22 -1 -2 16 -22 37 -44 22
-22 36 -33 32 -25 -4 9 -1 8 7 -2 8 -10 17 -18 21 -18 4 0 14 -6 22 -14 13
-13 108 -54 144 -61 8 -2 15 -4 15 -5 0 -10 244 -20 250 -10 2 4 18 7 35 8 32
1 115 28 138 45 6 5 12 6 12 3 0 -11 90 54 132 96 21 21 35 38 31 38 -5 0 -1
6 7 13 16 13 49 77 57 112 17 72 21 114 22 225 0 69 1 130 2 135 1 6 1 14 0
20 -5 23 -2 297 2 302 3 3 3 11 1 18 -8 21 -10 285 -2 285 4 0 5 6 2 13 -2 7
-6 31 -7 53 l-2 39 -131 3 -131 3 -1 -477z"/>
<path d="M4774 4073 c-8 -21 -20 -49 -26 -63 -6 -14 -11 -29 -10 -33 2 -5 -4
-20 -12 -35 -8 -15 -28 -63 -45 -107 -17 -44 -36 -93 -42 -110 -7 -16 -13 -32
-13 -35 -1 -5 -21 -56 -41 -105 -7 -16 -21 -50 -30 -75 -9 -25 -22 -56 -28
-70 -5 -14 -12 -34 -14 -45 -2 -10 -9 -23 -16 -27 -6 -4 -9 -8 -5 -8 4 0 -6
-32 -22 -71 -17 -39 -27 -75 -24 -80 3 -5 1 -9 -5 -9 -9 0 -47 -98 -43 -112 1
-5 -3 -8 -8 -8 -5 0 -9 -3 -8 -7 1 -9 0 -12 -43 -118 -16 -38 -29 -73 -29 -78
0 -4 -8 -27 -19 -50 -29 -67 -34 -81 -38 -108 l-4 -26 133 2 c160 3 148 1 148
24 0 11 5 23 10 26 6 4 8 11 5 16 -4 5 -1 9 6 9 7 0 10 3 7 6 -4 3 7 41 23 85
16 43 25 79 21 79 -4 0 -1 4 6 9 7 4 15 14 16 22 1 8 11 41 21 74 11 33 19 62
20 65 0 3 6 14 11 25 6 11 14 32 18 47 3 15 11 40 18 55 6 15 12 30 13 33 14
52 52 156 58 158 4 2 5 7 2 11 -2 5 1 16 8 25 11 15 16 9 36 -46 13 -35 23
-71 24 -80 1 -10 4 -18 7 -18 3 0 12 -21 19 -47 8 -27 18 -53 22 -59 5 -6 10
-23 11 -38 1 -14 5 -26 9 -26 3 0 12 -21 19 -47 7 -27 17 -52 21 -58 4 -5 8
-14 9 -20 1 -5 6 -20 11 -33 5 -13 9 -26 9 -30 0 -4 16 -49 35 -101 19 -52 37
-105 39 -118 9 -45 23 -49 158 -49 69 1 129 3 131 6 3 3 -1 23 -9 45 -8 22
-16 45 -18 50 -1 6 -10 28 -19 49 -10 21 -24 59 -33 84 -8 25 -18 50 -22 56
-3 6 -7 16 -8 21 -1 6 -31 84 -67 175 -35 91 -71 183 -78 205 -8 22 -16 42
-19 45 -3 3 -12 25 -20 50 -8 25 -22 60 -32 78 -10 17 -16 32 -13 32 3 0 -6
25 -20 55 -13 30 -21 55 -18 55 3 0 0 7 -7 15 -7 8 -9 15 -4 15 5 0 4 4 -2 8
-6 4 -19 31 -28 59 -10 29 -21 55 -26 58 -5 3 -7 12 -3 20 3 8 0 15 -6 15 -6
0 -11 9 -11 20 0 12 -7 34 -15 50 -9 17 -12 30 -9 30 4 0 0 8 -9 18 -8 9 -15
19 -15 22 3 17 -28 80 -40 80 -7 0 -20 -17 -28 -37z"/>
<path d="M3652 3591 c-5 -3 -8 -46 -7 -94 0 -49 -3 -91 -7 -93 -5 -3 -5 -11
-1 -17 12 -19 10 -191 -2 -199 -7 -5 -7 -8 1 -8 11 0 13 -237 1 -256 -3 -6 -3
-14 0 -18 11 -11 11 -136 0 -129 -6 4 -7 1 -1 -8 5 -8 9 -22 10 -31 1 -10 2
-24 3 -31 1 -11 28 -14 128 -13 126 1 127 1 133 26 4 19 5 845 1 870 -1 8
-248 8 -259 1z"/>
<path d="M2938 2305 c-2 -3 -22 -7 -44 -9 -46 -5 -114 -32 -114 -46 0 -6 -7
-10 -16 -10 -8 0 -13 -4 -10 -9 4 -5 1 -11 -5 -13 -15 -5 -39 -100 -29 -113 9
-11 10 -15 10 -44 0 -38 121 -124 150 -106 6 3 10 2 10 -3 0 -7 40 -7 80 1 40
8 90 30 90 38 0 6 5 7 10 4 6 -3 10 1 10 10 0 9 4 14 8 11 7 -4 8 33 2 42 -7
8 -4 28 5 34 7 5 6 8 -1 8 -6 0 -10 10 -9 23 3 22 1 23 -69 21 -88 -2 -81 1
-82 -29 -2 -26 7 -29 69 -25 24 1 27 -2 27 -29 0 -21 -5 -31 -15 -31 -8 0 -15
-4 -15 -8 0 -5 -6 -9 -12 -10 -7 0 -29 -3 -49 -5 -47 -6 -108 16 -136 48 -32
37 -32 104 1 136 32 32 56 51 56 45 0 -3 11 -1 24 4 13 5 26 6 29 3 3 -3 25
-7 47 -8 23 -2 51 -12 62 -22 11 -10 22 -17 25 -16 10 3 23 28 23 44 0 17 -67
52 -98 52 -9 0 -20 4 -23 9 -3 4 -8 6 -11 3z"/>
<path d="M1833 2292 c-23 -3 -23 -5 -23 -168 0 -90 3 -164 8 -165 34 -4 276
-3 281 1 4 3 10 15 13 28 7 25 15 24 -129 26 -56 1 -105 5 -110 9 -4 5 -8 23
-8 40 l0 32 64 5 c56 4 64 8 67 27 3 15 -3 24 -17 28 -11 4 -23 4 -26 1 -4 -3
-13 0 -21 7 -11 8 -14 9 -9 0 5 -8 -1 -11 -18 -9 -31 3 -36 8 -39 40 -4 37 13
42 131 40 89 -1 102 0 106 16 2 10 1 24 -3 31 -11 16 -40 21 -40 6 0 -7 -5 -5
-10 3 -9 13 -10 13 -10 0 0 -9 -3 -11 -8 -5 -7 11 -62 15 -62 5 0 -3 -26 -3
-57 0 -32 3 -68 4 -80 2z"/>
<path d="M2254 2285 c-5 -11 -9 -87 -9 -168 2 -154 6 -170 44 -160 15 4 18 16
17 78 -1 41 -5 77 -9 81 -4 4 -2 13 4 20 6 8 9 20 6 27 -3 8 -1 20 4 28 5 8 9
9 9 3 0 -6 12 -24 28 -41 15 -17 41 -48 57 -69 17 -21 38 -45 48 -53 9 -9 17
-20 17 -26 0 -18 60 -53 81 -48 18 5 20 13 18 83 -1 42 1 82 5 89 4 6 3 11 -3
11 -6 0 -7 8 -3 19 4 11 5 45 4 75 -4 54 -5 56 -32 56 l-28 0 -1 -112 c0 -62
0 -116 0 -120 -1 -7 -61 51 -61 59 0 2 -22 30 -49 61 -26 31 -57 67 -67 80
-10 12 -24 22 -31 22 -7 0 -13 6 -13 13 0 9 -3 8 -9 -2 -7 -11 -9 -11 -13 0
-3 10 -7 8 -14 -6z"/>
<path d="M3490 2288 c0 -5 -4 -7 -9 -4 -11 7 -10 -317 2 -325 5 -4 18 -4 28
-2 21 6 20 4 20 153 0 85 1 93 14 76 8 -11 15 -23 15 -28 0 -4 6 -8 13 -8 6 0
22 -16 35 -35 12 -19 27 -35 32 -35 6 0 10 -5 10 -11 0 -15 78 -103 99 -110 9
-4 28 -1 41 7 14 7 20 13 15 14 -13 0 -13 179 -1 199 6 10 5 12 -2 7 -7 -4
-12 -1 -12 8 0 9 6 16 13 16 9 0 9 2 0 8 -6 4 -10 21 -8 39 2 26 -2 32 -21 36
-15 2 -25 -2 -30 -12 -11 -27 -11 -51 0 -51 6 0 5 -4 -3 -9 -9 -6 -10 -11 -2
-15 6 -4 8 -12 5 -18 -10 -15 -12 -78 -4 -83 4 -3 5 -16 3 -30 l-5 -25 -27 29
c-49 53 -89 101 -86 101 2 0 -6 10 -18 23 -12 12 -33 36 -47 53 -26 30 -70 51
-70 32z"/>
<path d="M4037 2292 l-48 -3 2 -144 c0 -79 -2 -148 -5 -154 -3 -5 0 -15 7 -23
10 -10 47 -13 148 -11 74 1 137 2 142 2 4 1 7 14 7 29 l0 28 -120 -1 c-66 0
-120 3 -121 7 -1 4 -1 19 -1 33 0 14 0 30 1 35 1 6 30 10 66 10 59 0 65 2 65
21 0 11 -7 27 -15 35 -8 9 -15 12 -15 7 0 -4 -21 -8 -46 -8 -50 0 -67 19 -55
60 6 18 15 20 120 20 l114 0 4 28 c3 18 0 26 -7 22 -5 -3 -10 -3 -10 2 0 4
-13 8 -30 8 -16 0 -30 -3 -30 -7 0 -4 -13 -3 -30 2 -19 5 -32 5 -36 -2 -4 -6
-10 -5 -15 3 -7 11 -9 11 -9 1 0 -8 -6 -10 -17 -5 -10 5 -40 7 -66 5z"/>
<path d="M3228 2283 c-2 -5 -4 -77 -3 -162 1 -149 1 -154 23 -162 14 -5 24 -4
29 4 4 7 8 83 8 169 l0 158 -27 0 c-15 0 -28 -3 -30 -7z"/>
</g>
</svg>
